HIERARCHY
ROOT Hips
{
    OFFSET   0.000000   0.000000   0.000000
    CHANNELS 6 Xposition Yposition Zposition Zrotation Xrotation Yrotation
    JOINT Chest
    {
        OFFSET   0.000000   8.007230   0.000000
        CHANNELS 3 Zrotation Xrotation Yrotation
        JOINT Chest2
        {
            OFFSET   0.000000  22.077100   0.000000
            CHANNELS 3 Zrotation Xrotation Yrotation
            JOINT Neck
            {
                OFFSET   0.000000  23.254800  -0.000021
                CHANNELS 3 Zrotation Xrotation Yrotation
                JOINT Head
                {
                    OFFSET   0.000000  14.370000   1.956610
                    CHANNELS 3 Zrotation Xrotation Yrotation
                    End Site
                    {
                        OFFSET   0.000000  19.566000   0.000000
                    }
                }
            }
            JOINT LeftCollar
            {
                OFFSET   3.911900  19.017000  -0.467063
                CHANNELS 3 Zrotation Xrotation Yrotation
                JOINT LeftShoulder
                {
                    OFFSET  10.383700   0.000000   0.000000
                    CHANNELS 3 Zrotation Xrotation Yrotation
                    JOINT LeftElbow
                    {
                        OFFSET  26.662100   0.001529   0.000325
                        CHANNELS 3 Zrotation Xrotation Yrotation
                        JOINT LeftWrist
                        {
                            OFFSET  28.869000  -0.000011  -0.000096
                            CHANNELS 3 Zrotation Xrotation Yrotation
                            JOINT LeftFinger0
                            {
                                OFFSET   2.044650  -2.323460   3.252850
                                CHANNELS 3 Zrotation Xrotation Yrotation
                                JOINT LeftFinger01
                                {
                                    OFFSET   3.088130   0.000000   0.000000
                                    CHANNELS 3 Zrotation Xrotation Yrotation
                                    JOINT LeftFinger02
                                    {
                                        OFFSET   2.639460   0.000000   0.000000
                                        CHANNELS 3 Zrotation Xrotation Yrotation
                                        End Site
                                        {
                                            OFFSET   2.582190   0.000000   0.000000
                                        }
                                    }
                                }
                            }
                            JOINT LeftFinger1
                            {
                                OFFSET   8.364480   0.000000   3.252850
                                CHANNELS 3 Zrotation Xrotation Yrotation
                                JOINT LeftFinger11
                                {
                                    OFFSET   4.646930   0.000000   0.000000
                                    CHANNELS 3 Zrotation Xrotation Yrotation
                                    JOINT LeftFinger12
                                    {
                                        OFFSET   2.323460   0.000000   0.000000
                                        CHANNELS 3 Zrotation Xrotation Yrotation
                                        End Site
                                        {
                                            OFFSET   2.273050   0.000000   0.000000
                                        }
                                    }
                                }
                            }
                            JOINT LeftFinger2
                            {
                                OFFSET   8.364480   0.000016   1.078090
                                CHANNELS 3 Zrotation Xrotation Yrotation
                                JOINT LeftFinger21
                                {
                                    OFFSET   5.111620   0.000000   0.000000
                                    CHANNELS 3 Zrotation Xrotation Yrotation
                                    JOINT LeftFinger22
                                    {
                                        OFFSET   2.788160   0.000017   0.000000
                                        CHANNELS 3 Zrotation Xrotation Yrotation
                                        End Site
                                        {
                                            OFFSET   2.727660   0.000000   0.000000
                                        }
                                    }
                                }
                            }
                            JOINT LeftFinger3
                            {
                                OFFSET   7.899780   0.000015  -1.078090
                                CHANNELS 3 Zrotation Xrotation Yrotation
                                JOINT LeftFinger31
                                {
                                    OFFSET   4.646920   0.000000   0.000000
                                    CHANNELS 3 Zrotation Xrotation Yrotation
                                    JOINT LeftFinger32
                                    {
                                        OFFSET   2.323470   0.000000   0.000000
                                        CHANNELS 3 Zrotation Xrotation Yrotation
                                        End Site
                                        {
                                            OFFSET   2.273050   0.000000   0.000000
                                        }
                                    }
                                }
                            }
                            JOINT LeftFinger4
                            {
                                OFFSET   7.435090   0.000000  -3.252850
                                CHANNELS 3 Zrotation Xrotation Yrotation
                                JOINT LeftFinger41
                                {
                                    OFFSET   3.717550   0.000000   0.000000
                                    CHANNELS 3 Zrotation Xrotation Yrotation
                                    JOINT LeftFinger42
                                    {
                                        OFFSET   1.858760   0.000000   0.000000
                                        CHANNELS 3 Zrotation Xrotation Yrotation
                                        End Site
                                        {
                                            OFFSET   1.818440   0.000000   0.000000
                                        }
                                    }
                                }
                            }
                        }
                    }
                }
            }
            JOINT RightCollar
            {
                OFFSET  -3.911900  19.017000  -0.467062
                CHANNELS 3 Zrotation Xrotation Yrotation
                JOINT RightShoulder
                {
                    OFFSET -10.383700   0.000015   0.000000
                    CHANNELS 3 Zrotation Xrotation Yrotation
                    JOINT RightElbow
                    {
                        OFFSET -26.662100   0.001341   0.000385
                        CHANNELS 3 Zrotation Xrotation Yrotation
                        JOINT RightWrist
                        {
                            OFFSET -28.869000   0.000025  -0.000080
                            CHANNELS 3 Zrotation Xrotation Yrotation
                            JOINT RightFinger0
                            {
                                OFFSET  -2.044650  -2.323490   3.252850
                                CHANNELS 3 Zrotation Xrotation Yrotation
                                JOINT RightFinger01
                                {
                                    OFFSET  -3.088130   0.000000   0.000000
                                    CHANNELS 3 Zrotation Xrotation Yrotation
                                    JOINT RightFinger02
                                    {
                                        OFFSET  -2.639460   0.000000   0.000000
                                        CHANNELS 3 Zrotation Xrotation Yrotation
                                        End Site
                                        {
                                            OFFSET  -2.582190   0.000000   0.000000
                                        }
                                    }
                                }
                            }
                            JOINT RightFinger1
                            {
                                OFFSET  -8.364480   0.000000   3.252850
                                CHANNELS 3 Zrotation Xrotation Yrotation
                                JOINT RightFinger11
                                {
                                    OFFSET  -4.646930   0.000000   0.000000
                                    CHANNELS 3 Zrotation Xrotation Yrotation
                                    JOINT RightFinger12
                                    {
                                        OFFSET  -2.323470   0.000000   0.000000
                                        CHANNELS 3 Zrotation Xrotation Yrotation
                                        End Site
                                        {
                                            OFFSET  -2.273050   0.000000   0.000000
                                        }
                                    }
                                }
                            }
                            JOINT RightFinger2
                            {
                                OFFSET  -8.364480   0.000000   1.078090
                                CHANNELS 3 Zrotation Xrotation Yrotation
                                JOINT RightFinger21
                                {
                                    OFFSET  -5.111610   0.000000   0.000000
                                    CHANNELS 3 Zrotation Xrotation Yrotation
                                    JOINT RightFinger22
                                    {
                                        OFFSET  -2.788160   0.000000   0.000000
                                        CHANNELS 3 Zrotation Xrotation Yrotation
                                        End Site
                                        {
                                            OFFSET  -2.727660   0.000000   0.000000
                                        }
                                    }
                                }
                            }
                            JOINT RightFinger3
                            {
                                OFFSET  -7.899780   0.000000  -1.078090
                                CHANNELS 3 Zrotation Xrotation Yrotation
                                JOINT RightFinger31
                                {
                                    OFFSET  -4.646920   0.000000   0.000000
                                    CHANNELS 3 Zrotation Xrotation Yrotation
                                    JOINT RightFinger32
                                    {
                                        OFFSET  -2.323470   0.000000   0.000000
                                        CHANNELS 3 Zrotation Xrotation Yrotation
                                        End Site
                                        {
                                            OFFSET  -2.273050   0.000000   0.000000
                                        }
                                    }
                                }
                            }
                            JOINT RightFinger4
                            {
                                OFFSET  -7.435090   0.000000  -3.252850
                                CHANNELS 3 Zrotation Xrotation Yrotation
                                JOINT RightFinger41
                                {
                                    OFFSET  -3.717550   0.000000   0.000000
                                    CHANNELS 3 Zrotation Xrotation Yrotation
                                    JOINT RightFinger42
                                    {
                                        OFFSET  -1.858770   0.000000   0.000000
                                        CHANNELS 3 Zrotation Xrotation Yrotation
                                        End Site
                                        {
                                            OFFSET  -1.818440   0.000000   0.000000
                                        }
                                    }
                                }
                            }
                        }
                    }
                }
            }
        }
    }
    JOINT LeftHip
    {
        OFFSET   9.783010   0.000000   0.000000
        CHANNELS 3 Zrotation Xrotation Yrotation
        JOINT LeftKnee
        {
            OFFSET   0.000070 -41.789100   0.000028
            CHANNELS 3 Zrotation Xrotation Yrotation
            JOINT LeftAnkle
            {
                OFFSET   0.000087 -41.133200  -0.000100
                CHANNELS 3 Zrotation Xrotation Yrotation
                JOINT LeftToe
                {
                    OFFSET   0.000000  -6.358960  14.674500
                    CHANNELS 3 Zrotation Xrotation Yrotation
                    End Site
                    {
                        OFFSET   0.000000   0.000000   3.913200
                    }
                }
            }
        }
    }
    JOINT RightHip
    {
        OFFSET  -9.783020   0.000000   0.000000
        CHANNELS 3 Zrotation Xrotation Yrotation
        JOINT RightKnee
        {
            OFFSET   0.000044 -41.789100  -0.000870
            CHANNELS 3 Zrotation Xrotation Yrotation
            JOINT RightAnkle
            {
                OFFSET  -0.000090 -41.133200  -0.000245
                CHANNELS 3 Zrotation Xrotation Yrotation
                JOINT RightToe
                {
                    OFFSET   0.000000  -6.358960  14.674500
                    CHANNELS 3 Zrotation Xrotation Yrotation
                    End Site
                    {
                        OFFSET   0.000000   0.000000   3.913200
                    }
                }
            }
        }
    }
}
MOTION
Frames: 4
Frame Time:   0.016667
 -1.206300  89.538300  -1.460300   0.373686 -12.568400   2.931960   0.199585   8.339040  -1.009310   0.558495  16.673100  -2.081990  -0.584179   4.212920   0.042939  -0.973143   8.539150  -5.813470  -6.228270   2.075880   9.984600 -73.472000  15.124300 -24.325700   5.578010  -3.578590 -73.174300  26.260600 -87.656400  24.878400  36.458100  20.780300 -59.616500 -24.845400   0.002569   0.001190  -7.422670   0.001860  -0.004059 -20.353900  -0.276717   0.747225 -16.654600   0.009649  -0.004098 -11.658200   0.008660   0.000708 -27.740100  -4.206070   7.938170 -32.196000   0.001465   0.002403 -21.442500   0.000704  -0.006862 -20.758800  -3.205590   8.389710 -20.993900   0.006754  -0.001715 -13.982000   0.004498   0.003438 -25.032100 -10.188600  20.741500 -40.351600  -0.000136   0.002042 -26.874100  -0.000219  -0.000273   3.030090   0.803246   7.276340  70.442900   4.683630  19.465900  -2.958950  -3.532490  78.868600 -106.706000 -75.241700 -82.871600 -43.798400  32.095000  70.642700  -0.450062   0.001487  -0.000000  -5.225020   0.003274   0.002359  15.299100  -0.352018  -1.276270  12.522100   0.000382   0.000541   8.765470   0.000652  -0.000143  15.790700  -3.245700 -11.325900  16.112800   0.000776  -0.001033  10.731100   0.000804   0.005579  17.062400  -3.772070 -12.104200  17.462500   0.000926  -0.000711  11.630000   0.001237  -0.002099  16.327900  -3.615490 -12.152000  25.069600   0.000620  -0.001542  16.696300   0.001235  -0.004983   2.669420  11.964900  -0.826107   0.689841   2.297540  10.461300  -4.114810  -1.480940  -0.903661   0.000000   0.000000   0.000000  -1.105020  12.868800  -3.524000  -0.494019   3.330130 -13.194100   0.671766  -3.026230  -3.648090  -0.000000   0.000000  -0.000000
 -1.194270  89.534900  -1.450330   0.414903 -12.544100   3.065400   0.210071   8.354600  -0.958980   0.572547  16.704800  -1.981460  -0.679329   4.027570   0.047739  -1.130770   8.162540  -5.232730  -6.235980   2.018810   9.840320 -73.024200  15.338200 -24.852300   5.816850  -4.142690 -74.463400  29.848400 -88.151700  28.682900  36.581800  21.143700 -59.985300 -24.769200   0.002564   0.001197  -7.384570   0.001853  -0.004051 -20.403900  -0.259675   0.698246 -16.695300   0.009695  -0.004177 -11.686800   0.008708   0.000710 -27.692400  -4.215760   7.971920 -31.899400   0.001402   0.002413 -21.245000   0.000653  -0.007016 -20.818300  -3.226860   8.418250 -21.055700   0.006747  -0.001767 -14.023200   0.004507   0.003436 -24.986200 -10.212800  20.825800 -40.300700  -0.000168   0.002038 -26.840300  -0.000237  -0.000294   3.071800   0.854482   7.261300  70.346700   4.956320  18.989500  -2.251570  -3.308860  77.584200 -105.860000 -75.381000 -81.956300 -43.735400  32.207800  70.865900  -0.481217   0.001462   0.000059  -5.240600   0.003199   0.002330  15.471600  -0.267411  -0.963924  12.661300   0.000329   0.000509   8.862910   0.000606  -0.000144  16.150600  -3.296480 -11.235400  16.475200   0.000738  -0.001033  10.972400   0.000768   0.005655  17.487400  -3.844800 -12.020800  17.892500   0.000898  -0.000688  11.916400   0.001206  -0.002033  16.623300  -3.662850 -12.078100  25.516800   0.000581  -0.001489  16.994200   0.001194  -0.004984   2.658270  11.934600  -0.852125   0.681143   2.283400  10.418100  -4.115300  -1.456180  -0.958015  -0.000000   0.000000  -0.000000  -1.144270  12.883600  -3.569750  -0.461032   3.314690 -13.268400   0.669173  -3.040290  -3.644310  -0.000000   0.000000   0.000000
 -1.179650  89.529300  -1.438540   0.452452 -12.515300   3.194300   0.222928   8.366070  -0.901960   0.590233  16.727500  -1.867620  -0.774397   3.852370   0.052076  -1.287630   7.806610  -4.625300  -6.234210   1.956580   9.710100 -72.569300  15.560000 -25.367800   6.008340  -4.703660 -75.740800  33.147400 -88.588500  32.185700  36.691900  21.453300 -60.318900 -24.693000   0.002560   0.001211  -7.346480   0.001846  -0.004044 -20.454400  -0.242631   0.649267 -16.736500   0.009741  -0.004259 -11.715600   0.008754   0.000713 -27.640800  -4.225400   8.007190 -31.592900   0.001340   0.002419 -21.040900   0.000604  -0.007168 -20.868800  -3.247300   8.448550 -21.108600   0.006742  -0.001825 -14.058400   0.004516   0.003433 -24.935300 -10.234000  20.909200 -40.241700  -0.000190   0.002028 -26.801000  -0.000261  -0.000315   3.107540   0.902688   7.251050  70.279200   5.205850  18.522100  -1.617600  -3.161660  76.347900 -104.529000 -75.591200 -80.488700 -43.673500  32.319200  71.090300  -0.512372   0.001435   0.000119  -5.256180   0.003128   0.002310  15.643200  -0.182780  -0.651587  12.800500   0.000278   0.000476   8.960340   0.000561  -0.000146  16.507000  -3.346900 -11.146200  16.833900   0.000700  -0.001034  11.211300   0.000732   0.005732  17.900900  -3.915750 -11.940100  18.310600   0.000872  -0.000661  12.194900   0.001175  -0.001971  16.906800  -3.706240 -12.006700  25.945300   0.000546  -0.001431  17.279600   0.001152  -0.004988   2.646320  11.901700  -0.880355   0.674633   2.269070  10.375800  -4.115080  -1.433690  -1.006460  -0.000000   0.000000   0.000000  -1.182880  12.901300  -3.625850  -0.428420   3.285940 -13.347700   0.667478  -3.052310  -3.630360  -0.000000   0.000000   0.000000
 -1.164490  89.524200  -1.423870   0.482542 -12.483500   3.314780   0.239269   8.369090  -0.836922   0.613603  16.733200  -1.737910  -0.870397   3.699390   0.056213  -1.446580   7.495920  -3.993270  -6.219290   1.897220   9.598160 -72.106300  15.810700 -25.862200   6.179210  -5.275680 -76.996000  40.834500 -89.005500  40.080400  36.664400  21.527300 -60.473500 -24.731600   0.002556   0.001226  -7.365810   0.001852  -0.004042 -20.530600  -0.255062   0.681215 -16.798900   0.009783  -0.004337 -11.759300   0.008806   0.000714 -27.575700  -4.236920   8.051010 -31.214300   0.001267   0.002424 -20.788700   0.000560  -0.007316 -20.911700  -3.269580   8.487270 -21.154300   0.006735  -0.001891 -14.088800   0.004522   0.003429 -24.869900 -10.295000  21.082100 -40.185100  -0.000222   0.001995 -26.763200  -0.000294  -0.000329   3.134610   0.951627   7.222470  70.369600   5.368930  18.081300  -1.419970  -2.831370  75.130100 -103.555000 -75.704700 -79.317300 -43.577200  31.842300  70.477700  -0.181036   0.001396   0.000059  -5.090520   0.003049   0.002314  15.628300  -0.200705  -0.718328  12.787900   0.000226   0.000448   8.951490   0.000520  -0.000142  16.600000  -3.360360 -11.123800  16.927400   0.000665  -0.001031  11.273600   0.000701   0.005804  18.022600  -3.936950 -11.917200  18.433600   0.000845  -0.000640  12.276800   0.001138  -0.001922  16.963900  -3.713590 -11.989000  26.030900   0.000507  -0.001382  17.336600   0.001114  -0.004995   2.636400  11.866800  -0.905825   0.672621   2.254990  10.328400  -4.114740  -1.412940  -1.047490  -0.000000   0.000000   0.000000  -1.215780  12.914900  -3.680810  -0.399380   3.259420 -13.430600   0.666843  -3.060650  -3.601700   0.000000   0.000000   0.000000
